HIERARCHY
ROOT Hips
{
 OFFSET 0.000000 0.000000 0.000000
 CHANNELS 6 Xposition Yposition Zposition Yrotation Xrotation Zrotation
 JOINT Chest
 {
  OFFSET 0.000000 9.585900 0.002600
  CHANNELS 3 Yrotation Xrotation Zrotation
  JOINT Chest2
  {
   OFFSET 0.000000 9.601200 -0.005300
   CHANNELS 3 Yrotation Xrotation Zrotation
   JOINT Chest3
   {
    OFFSET 0.000000 9.561800 0.000000
    CHANNELS 3 Yrotation Xrotation Zrotation
    JOINT Chest4
    {
     OFFSET 0.000000 9.552100 0.000000
     CHANNELS 3 Yrotation Xrotation Zrotation
     JOINT Neck
     {
      OFFSET 0.000000 14.453000 0.000000
      CHANNELS 3 Yrotation Xrotation Zrotation
      JOINT Head
      {
       OFFSET 0.000000 8.936500 -0.011300
       CHANNELS 3 Yrotation Xrotation Zrotation
       End Site
       {
        OFFSET 0.000000 17.073600 -0.006000
       }
      }
     }
     JOINT RightCollar
     {
      OFFSET -2.921100 9.558500 0.000000
      CHANNELS 3 Yrotation Xrotation Zrotation
      JOINT RightShoulder
      {
       OFFSET -13.519700 0.000000 0.000000
       CHANNELS 3 Yrotation Xrotation Zrotation
       JOINT RightElbow
       {
        OFFSET 0.000000 -29.696600 0.000000
        CHANNELS 3 Yrotation Xrotation Zrotation
        JOINT RightWrist
        {
         OFFSET 0.000000 -24.004700 0.000000
         CHANNELS 3 Yrotation Xrotation Zrotation
         End Site
         {
          OFFSET 0.000000 -17.728500 0.000000
         }
        }
       }
      }
     }
     JOINT LeftCollar
     {
      OFFSET 2.921100 9.558500 0.000000
      CHANNELS 3 Yrotation Xrotation Zrotation
      JOINT LeftShoulder
      {
       OFFSET 13.519700 0.000000 0.000000
       CHANNELS 3 Yrotation Xrotation Zrotation
       JOINT LeftElbow
       {
        OFFSET 0.000000 -29.696600 0.000000
        CHANNELS 3 Yrotation Xrotation Zrotation
        JOINT LeftWrist
        {
         OFFSET 0.000000 -24.004700 0.000000
         CHANNELS 3 Yrotation Xrotation Zrotation
         End Site
         {
          OFFSET 0.000000 -17.728500 0.000000
         }
        }
       }
      }
     }
    }
   }
  }
 }
 JOINT RightHip
 {
  OFFSET -7.771700 -0.012900 -0.001300
  CHANNELS 3 Yrotation Xrotation Zrotation
  JOINT RightKnee
  {
   OFFSET 0.000000 -40.869800 0.001200
   CHANNELS 3 Yrotation Xrotation Zrotation
   JOINT RightAnkle
   {
    OFFSET 0.000000 -39.717900 0.002100
    CHANNELS 3 Yrotation Xrotation Zrotation
    JOINT RightToe
    {
     OFFSET 0.000000 -4.965400 11.033500
     CHANNELS 3 Yrotation Xrotation Zrotation
     End Site
     {
      OFFSET 0.000000 -1.423100 5.872300
     }
    }
   }
  }
 }
 JOINT LeftHip
 {
  OFFSET 7.771700 -0.012900 -0.001300
  CHANNELS 3 Yrotation Xrotation Zrotation
  JOINT LeftKnee
  {
   OFFSET 0.000000 -40.869800 0.001200
   CHANNELS 3 Yrotation Xrotation Zrotation
   JOINT LeftAnkle
   {
    OFFSET 0.000000 -39.717900 0.002100
    CHANNELS 3 Yrotation Xrotation Zrotation
    JOINT LeftToe
    {
     OFFSET 0.000000 -4.965400 11.033500
     CHANNELS 3 Yrotation Xrotation Zrotation
     End Site
     {
      OFFSET 0.000000 -1.423100 5.872300
     }
    }
   }
  }
 }
}
MOTION
Frames: 9
Frame Time: 0.008333
-162.098904 51.284616 107.660189 -171.920853 -29.812850 -8.449955 -1.796863 11.462161 3.523970 -1.142286 6.487076 1.997189 -1.387627 8.222359 2.494039 -1.134994 6.528367 1.998124 2.914524 22.275422 -2.909663 3.854056 -1.717803 -3.746107 1.330058 3.349525 -2.437770 -15.448475 -5.941089 5.754704 79.576409 -78.732658 -58.124752 13.777496 -2.336604 -19.655324 -8.363464 3.323752 -3.095379 5.653497 0.843831 -1.571371 -128.674861 -76.238936 128.716781 12.464295 -5.589774 -12.313893 -18.412973 -33.195667 4.993818 28.730691 82.833521 24.328704 -2.818441 -15.573140 -0.069002 0.057561 0.066263 -0.305614 -13.249738 -50.073330 6.559546 176.140034 78.841525 170.991211 -2.075790 -17.476306 2.716982 -0.005422 0.006513 -0.053288
-162.076358 51.296045 107.636219 -171.892614 -29.715634 -8.506801 -1.820400 11.400669 3.571546 -1.141401 6.504341 2.005105 -1.396768 8.200906 2.500033 -1.131501 6.507076 1.992268 2.953627 22.333892 -2.827815 3.855419 -1.725835 -3.768793 1.334126 3.379958 -2.430090 -15.478033 -5.896276 5.772454 79.796965 -78.702645 -58.419713 13.801271 -2.356611 -19.644107 -8.440674 3.373100 -3.092728 5.685607 0.870802 -1.493586 -128.521623 -76.192301 128.540765 12.397728 -5.623223 -12.195492 -18.501577 -33.310621 5.109048 28.547605 82.947290 24.211888 -2.770141 -15.630090 -0.100947 0.046532 0.062317 -0.299094 -13.409919 -50.141899 6.693864 175.970383 78.815294 170.825390 -2.089362 -17.501478 2.691371 0.013190 -0.000240 -0.040897
-162.060906 51.328533 107.606667 -171.840945 -29.652929 -8.554363 -1.864524 11.375720 3.596228 -1.142135 6.575489 2.018356 -1.403555 8.140456 2.506242 -1.140547 6.491921 2.000091 2.979873 22.357444 -2.806019 3.876048 -1.705732 -3.751924 1.351342 3.389510 -2.441408 -15.505148 -5.859724 5.795148 79.914856 -78.682967 -58.626788 13.806127 -2.383346 -19.662574 -8.456647 3.365732 -3.113320 5.659249 0.921942 -1.407717 -128.304109 -76.139740 128.321566 12.331407 -5.657148 -12.085195 -18.603354 -33.407733 5.165074 28.272822 83.117224 24.019298 -2.646023 -15.743123 -0.181151 -0.001446 0.085268 -0.200564 -13.526615 -50.156524 6.762314 175.852277 78.812969 170.712382 -2.087532 -17.523651 2.676296 0.008173 -0.011262 -0.042254
-162.047866 51.394886 107.570351 -171.769013 -29.632446 -8.622601 -1.896741 11.483684 3.633517 -1.157671 6.496092 2.027655 -1.411367 8.155893 2.523496 -1.156824 6.509334 2.030336 3.003683 22.343516 -2.814102 3.894595 -1.684557 -3.732899 1.363896 3.424481 -2.432988 -15.533241 -5.918923 5.791659 79.887539 -78.679778 -58.687699 13.791013 -2.406721 -19.704403 -8.465140 3.306358 -3.156011 5.623761 0.957060 -1.325653 -128.010499 -76.090712 128.046309 12.267948 -5.687817 -11.993808 -18.791892 -33.454366 5.217110 28.433967 83.283058 24.207544 -2.514006 -15.900079 -0.246717 -0.027825 0.135252 -0.183541 -13.708720 -50.090388 6.874432 175.873080 78.843994 170.692859 -2.070103 -17.528674 2.662718 0.002223 -0.039771 -0.039768
-162.023551 51.504610 107.532594 -171.690984 -29.613770 -8.783345 -1.935830 11.508609 3.760360 -1.158076 6.520625 2.036522 -1.416031 8.125267 2.525529 -1.162097 6.529954 2.047635 3.022295 22.359455 -2.789610 3.909381 -1.665950 -3.710857 1.354829 3.460132 -2.413167 -15.563002 -5.954942 5.789522 79.737292 -78.701143 -58.625958 13.759445 -2.416586 -19.759437 -8.551348 3.325871 -3.185637 5.640111 0.921846 -1.246079 -127.648325 -76.051498 127.701372 12.204872 -5.714425 -11.910203 -19.011104 -33.484623 5.368421 28.738138 83.467263 24.536804 -2.393402 -16.164218 -0.284853 -0.089036 0.280227 -0.164408 -14.000474 -49.963449 7.120574 175.836349 78.904354 170.626710 -2.053865 -17.536687 2.641641 -0.009880 -0.071763 -0.048081
-161.997757 51.659971 107.500315 -171.608999 -29.554929 -8.970986 -1.979101 11.494875 3.914996 -1.156745 6.560081 2.046354 -1.422093 8.080275 2.526597 -1.164214 6.554310 2.062639 3.036813 22.371721 -2.762165 3.918861 -1.651952 -3.684585 1.340390 3.476132 -2.400719 -15.595762 -5.980193 5.791864 79.468180 -78.736594 -58.450152 13.720170 -2.411380 -19.813830 -8.562391 3.290353 -3.207526 5.578882 0.925814 -1.167115 -127.225571 -76.021341 127.286464 12.139288 -5.732624 -11.833012 -19.271699 -33.549900 5.562919 29.187605 83.662294 25.004738 -2.313631 -16.527563 -0.261089 -0.091121 0.514498 -0.231003 -14.317057 -49.836257 7.401413 175.801396 79.013541 170.578456 -2.044815 -17.515633 2.605112 -0.010537 -0.116137 -0.045645
-161.967934 51.862853 107.470370 -171.541950 -29.480505 -9.192441 -1.987317 11.552021 4.114033 -1.166464 6.485507 2.054622 -1.424190 8.091625 2.537884 -1.165077 6.548904 2.071909 3.037979 22.354337 -2.762298 3.934460 -1.613930 -3.629817 1.320620 3.495544 -2.389385 -15.657342 -5.972296 5.824718 79.356429 -78.760064 -58.410568 13.681812 -2.391866 -19.858900 -8.573477 3.255287 -3.228583 5.522458 0.918380 -1.094791 -126.761329 -76.000748 126.827718 12.067878 -5.741226 -11.775184 -19.520271 -33.637155 5.806552 29.712340 83.878194 25.554191 -2.203172 -16.892161 -0.257278 -0.137697 0.745476 -0.269504 -14.661213 -49.675170 7.744324 175.824126 79.171969 170.589022 -2.022482 -17.477626 2.569984 -0.016499 -0.169559 -0.050057
-161.938382 52.105316 107.440836 -171.473097 -29.405421 -9.427776 -2.012835 11.522594 4.322646 -1.167240 6.471124 2.057395 -1.424173 8.128939 2.553139 -1.165171 6.520721 2.068267 3.057723 22.401716 -2.705736 3.932508 -1.613470 -3.614132 1.298524 3.544445 -2.368770 -15.705644 -5.984653 5.849644 79.118195 -78.790742 -58.263503 13.647883 -2.361792 -19.890668 -8.594001 3.285407 -3.242853 5.508851 0.864857 -1.061966 -126.233692 -75.964506 126.277926 11.989297 -5.740715 -11.742056 -19.833989 -33.698693 6.051385 30.710988 84.044317 26.550785 -2.044370 -17.292635 -0.270414 -0.282720 0.980156 -0.273493 -15.001025 -49.475551 8.089651 175.929843 79.376538 170.686607 -1.981974 -17.427481 2.545645 -0.021750 -0.228834 -0.054948
-161.906823 52.368937 107.418232 -171.427460 -29.289545 -9.666173 -2.023982 11.449657 4.546450 -1.165616 6.495216 2.065316 -1.422334 8.125112 2.564836 -1.165600 6.495207 2.065266 3.074881 22.449145 -2.650433 3.927665 -1.611275 -3.597089 1.285793 3.559312 -2.365938 -15.760840 -5.963481 5.879905 78.837054 -78.818976 -58.080656 13.620356 -2.322735 -19.909879 -8.607505 3.313258 -3.250625 5.463777 0.816341 -0.989539 -125.812026 -75.968700 125.864014 11.906138 -5.729202 -11.722058 -20.150082 -33.778466 6.324080 31.762649 84.166650 27.604675 -1.883248 -17.668491 -0.297526 -0.393787 1.240563 -0.332558 -15.315706 -49.302230 8.445853 176.011794 79.605846 170.782440 -1.944308 -17.365908 2.525089 -0.031798 -0.292739 -0.049962
